<svg width="48" height="48" viewBox="0 0 48 48" fill="none" xmlns="http://www.w3.org/2000/svg">
<path d="M26.9266 24L39.3932 11.5335C39.5863 11.3413 39.7393 11.1127 39.8434 10.8609C39.9476 10.6091 40.0007 10.3392 39.9998 10.0668C40.0032 9.79499 39.9512 9.52534 39.8469 9.27432C39.7426 9.0233 39.5882 8.79617 39.3932 8.60682C39.2038 8.41179 38.9767 8.2574 38.7257 8.1531C38.4747 8.04879 38.205 7.99675 37.9332 8.00016C37.6608 7.99927 37.3909 8.05243 37.1391 8.15656C36.8873 8.2607 36.6588 8.41374 36.4665 8.60682L24 21.0734L11.5335 8.60682C11.3413 8.41374 11.1127 8.2607 10.8609 8.15656C10.6091 8.05243 10.3392 7.99927 10.0668 8.00016C9.79499 7.99675 9.52534 8.04879 9.27432 8.1531C9.0233 8.2574 8.79617 8.41179 8.60682 8.60682C8.41179 8.79617 8.2574 9.0233 8.1531 9.27432C8.04879 9.52534 7.99675 9.79499 8.00016 10.0668C7.99927 10.3392 8.05243 10.6091 8.15656 10.8609C8.2607 11.1127 8.41374 11.3413 8.60682 11.5335L21.0734 24L8.60682 36.4665C8.41374 36.6588 8.2607 36.8873 8.15656 37.1391C8.05243 37.3909 7.99927 37.6608 8.00016 37.9332C7.99675 38.205 8.04879 38.4747 8.1531 38.7257C8.2574 38.9767 8.41179 39.2038 8.60682 39.3932C8.79617 39.5882 9.0233 39.7426 9.27432 39.8469C9.52534 39.9512 9.79499 40.0032 10.0668 39.9998C10.3392 40.0007 10.6091 39.9476 10.8609 39.8434C11.1127 39.7393 11.3413 39.5863 11.5335 39.3932L24 26.9266L36.4665 39.3932C36.6588 39.5863 36.8873 39.7393 37.1391 39.8434C37.3909 39.9476 37.6608 40.0007 37.9332 39.9998C38.4808 39.9981 39.0054 39.7798 39.3926 39.3926C39.7798 39.0054 39.9981 38.4808 39.9998 37.9332C40.0007 37.6608 39.9476 37.3909 39.8434 37.1391C39.7393 36.8873 39.5863 36.6588 39.3932 36.4665L26.9266 24Z" fill="#E9E9EC" fill-opacity="0.6"/>
</svg>
