<svg width="16" height="16" viewBox="0 0 16 16" fill="none" xmlns="http://www.w3.org/2000/svg">
<path fill-rule="evenodd" clip-rule="evenodd" d="M12.617 8.86207C13.265 7.73954 11.2381 5.35538 8.08954 3.53748C4.94004 1.7196 1.86236 1.15607 1.21429 2.2786C0.854356 2.90032 0.495325 3.52294 0.136294 4.14557C-0.511769 5.26813 1.51517 7.65135 4.66464 9.46926C7.81323 11.2871 10.8918 11.8516 11.5399 10.729C11.8989 10.1064 12.2579 9.4847 12.617 8.86207Z" fill="#FE9923"/>
<path fill-rule="evenodd" clip-rule="evenodd" d="M12.617 8.86209C13.1114 8.00678 12.0507 6.41793 10.1246 4.90637C9.60384 5.14906 9.07209 5.42537 8.53856 5.7335C6.66615 6.81425 5.14365 8.07131 4.2229 9.20656C4.36743 9.29565 4.51468 9.3829 4.66465 9.46925C6.40618 10.4745 8.1259 11.0962 9.42477 11.2617C10.0065 10.9981 10.6027 10.6927 11.2017 10.3473C11.4981 10.1755 11.7853 10.0001 12.0634 9.821L12.617 8.86209Z" fill="#CE7C1D"/>
<path fill-rule="evenodd" clip-rule="evenodd" d="M8.08955 3.53751C4.94005 1.7196 1.86236 1.15607 1.2143 2.2786C0.566234 3.40022 2.59317 5.78438 5.74264 7.60229C8.89123 9.42016 11.9698 9.98463 12.617 8.86207C13.265 7.73954 11.2381 5.35538 8.08955 3.53751Z" fill="#FECD3D"/>
<path fill-rule="evenodd" clip-rule="evenodd" d="M5.79907 7.63503C8.92857 9.42656 11.9735 9.97737 12.617 8.86209C13.1115 8.00678 12.0508 6.41793 10.1247 4.90637C9.60392 5.14906 9.07217 5.42537 8.53863 5.7335C7.50423 6.32978 6.5771 6.98059 5.79907 7.63503Z" fill="#CEA732"/>
<path fill-rule="evenodd" clip-rule="evenodd" d="M7.54056 4.48736C5.0355 3.0412 2.72497 2.35314 2.37956 2.95123C2.03506 3.54933 3.78569 5.20633 6.29075 6.65245C8.79581 8.09858 11.1063 8.78664 11.4517 8.18858C11.7971 7.59139 10.0456 5.93439 7.54056 4.48736Z" fill="#FEA832"/>
<path fill-rule="evenodd" clip-rule="evenodd" d="M6.73608 6.90241C9.0639 8.17585 11.1272 8.7512 11.4517 8.18857C11.7216 7.72048 10.7073 6.60338 9.05208 5.44629C8.88121 5.53901 8.7094 5.63445 8.53852 5.73351C7.89227 6.1062 7.28874 6.49976 6.73608 6.90241Z" fill="#CE8829"/>
<path d="M10.2574 10.5164L9.80564 11.298C9.61386 11.2862 9.40936 11.2635 9.19573 11.229L9.7702 10.2337L10.2574 10.5164ZM3.56301 8.7812C3.71664 8.88483 3.87389 8.98752 4.03476 9.08842L4.55651 8.18492L4.06933 7.90495L3.56301 8.7812ZM0.509888 5.93074C0.616231 6.09164 0.738044 6.25705 0.875294 6.4252L1.44976 5.43083L0.961669 5.14905L0.509888 5.93074ZM1.93967 7.52411C2.07873 7.64774 2.22326 7.77227 2.37414 7.89586L2.92133 6.94874L2.43414 6.6688L1.93967 7.52411ZM5.3082 9.82464C5.47726 9.91283 5.64542 9.99827 5.81176 10.0791L6.31804 9.20292L5.83086 8.92024L5.3082 9.82464ZM7.17245 10.6663C7.35514 10.7354 7.53511 10.7981 7.71145 10.8563L8.20592 10.0001L7.71873 9.72011L7.17245 10.6663Z" fill="#C85929"/>
<path d="M1.52423 9.34741V9.91641H2.09323V10.3654H1.52423V10.9344H1.07523V10.3654H0.506226V9.91641H1.07523V9.34741H1.52423Z" fill="#FEA832"/>
<path d="M11.5507 2.56213V3.13023H12.1197V3.57926H11.5507V4.14823H11.1017V3.57926H10.5327V3.13023H11.1017V2.56213H11.5507Z" fill="#FEA832"/>
<path fill-rule="evenodd" clip-rule="evenodd" d="M3.38211 11.8544C2.73402 10.7318 4.7619 8.34857 7.91046 6.53067C11.0591 4.71189 14.1376 4.14832 14.7857 5.27089C15.1447 5.89351 15.5038 6.51523 15.8637 7.13785C16.5118 8.26039 14.4839 10.6436 11.3354 12.4624C8.18587 14.2803 5.10821 14.8439 4.46011 13.7213C4.10108 13.0996 3.74115 12.477 3.38211 11.8544Z" fill="#FE9923"/>
<path fill-rule="evenodd" clip-rule="evenodd" d="M7.91046 6.53067C11.0591 4.71189 14.1376 4.14832 14.7857 5.27089C15.4338 6.39342 13.4059 8.77667 10.2574 10.5946C7.10787 12.4134 4.03021 12.9769 3.38212 11.8544C2.73402 10.7318 4.76187 8.34857 7.91046 6.53067Z" fill="#FECD3D"/>
<path fill-rule="evenodd" clip-rule="evenodd" d="M8.45864 7.48053C10.9637 6.0335 13.2751 5.34634 13.6196 5.9435C13.965 6.54159 12.2144 8.19859 9.70842 9.64472C7.20339 11.0917 4.89285 11.7789 4.54835 11.1817C4.20295 10.5837 5.95357 8.92669 8.45864 7.48053Z" fill="#FEA832"/>
<path d="M8.28136 12.7123L8.82764 13.6585C8.64496 13.7276 8.46499 13.7912 8.28774 13.8485L7.79327 12.9922L8.28136 12.7123ZM9.68205 12.1951L10.1874 13.0713C10.3547 12.9904 10.5228 12.9059 10.691 12.8168L10.1692 11.9133L9.68205 12.1951ZM5.74268 13.5085L6.19349 14.2902C6.38621 14.2793 6.5898 14.2557 6.8043 14.2211L6.22983 13.2268L5.74268 13.5085ZM15.0375 8.14124L14.5503 8.42302L15.1239 9.41739C15.2611 9.24927 15.3838 9.08474 15.4893 8.92383L15.0375 8.14124ZM11.4435 11.1771L11.9653 12.0815C12.1262 11.9797 12.2834 11.877 12.437 11.7734L11.9308 10.8972L11.4435 11.1771ZM13.0788 9.94092L13.626 10.889C13.7768 10.7644 13.9214 10.6408 14.0595 10.5163L13.566 9.66098L13.0788 9.94092Z" fill="#C85929"/>
</svg>
