<svg width="16" height="16" viewBox="0 0 16 16" fill="none" xmlns="http://www.w3.org/2000/svg">
<path fill-rule="evenodd" clip-rule="evenodd" d="M12.617 8.86213C13.265 7.7396 11.2381 5.35544 8.08954 3.53754C4.94004 1.71966 1.86236 1.15613 1.21429 2.27866C0.854356 2.90038 0.495325 3.52301 0.136294 4.14563C-0.511769 5.26819 1.51517 7.65141 4.66464 9.46932C7.81323 11.2872 10.8918 11.8517 11.5399 10.7291C11.8989 10.1065 12.2579 9.48476 12.617 8.86213Z" fill="#FE9923"/>
<path fill-rule="evenodd" clip-rule="evenodd" d="M12.6172 8.86215C13.1117 8.00684 12.0509 6.418 10.1249 4.90643C9.60408 5.14912 9.07233 5.42543 8.5388 5.73356C6.66639 6.81431 5.14389 8.07137 4.22314 9.20662C4.36768 9.29571 4.51493 9.38296 4.66489 9.46931C6.40643 10.4746 8.12614 11.0963 9.42502 11.2617C10.0067 10.9982 10.603 10.6927 11.202 10.3473C11.4983 10.1756 11.7855 10.0001 12.0637 9.82106L12.6172 8.86215Z" fill="#CE7C1D"/>
<path fill-rule="evenodd" clip-rule="evenodd" d="M8.08967 3.53757C4.94017 1.71966 1.86248 1.15613 1.21442 2.27866C0.566356 3.40029 2.59329 5.78444 5.74276 7.60235C8.89136 9.42022 11.9699 9.98469 12.6171 8.86213C13.2652 7.7396 11.2382 5.35544 8.08967 3.53757Z" fill="#FECD3D"/>
<path fill-rule="evenodd" clip-rule="evenodd" d="M5.79883 7.63509C8.92833 9.42662 11.9733 9.97743 12.6168 8.86215C13.1113 8.00684 12.0505 6.418 10.1245 4.90643C9.60367 5.14912 9.07192 5.42543 8.53839 5.73356C7.50398 6.32984 6.57686 6.98065 5.79883 7.63509Z" fill="#CEA732"/>
<path fill-rule="evenodd" clip-rule="evenodd" d="M7.54069 4.48742C5.03562 3.04126 2.72509 2.3532 2.37969 2.95129C2.03519 3.54939 3.78581 5.20639 6.29087 6.65251C8.79594 8.09864 11.1065 8.7867 11.4518 8.18864C11.7972 7.59145 10.0457 5.93445 7.54069 4.48742Z" fill="#FEA832"/>
<path fill-rule="evenodd" clip-rule="evenodd" d="M6.73633 6.90241C9.06414 8.17585 11.1274 8.7512 11.4519 8.18857C11.7219 7.72048 10.7075 6.60338 9.05233 5.44629C8.88145 5.53901 8.70964 5.63445 8.53877 5.73351C7.89252 6.1062 7.28898 6.49976 6.73633 6.90241Z" fill="#CE8829"/>
<path d="M10.2573 10.5164L9.80552 11.2981C9.61374 11.2863 9.40924 11.2636 9.19561 11.229L9.77008 10.2337L10.2573 10.5164ZM3.56289 8.78127C3.71652 8.88489 3.87377 8.98758 4.03464 9.08848L4.55639 8.18498L4.0692 7.90502L3.56289 8.78127ZM0.509766 5.9308C0.616109 6.0917 0.737922 6.25711 0.875172 6.42527L1.44964 5.43089L0.961547 5.14911L0.509766 5.9308ZM1.93955 7.52417C2.07861 7.6478 2.22314 7.77233 2.37402 7.89592L2.9212 6.9488L2.43402 6.66886L1.93955 7.52417ZM5.30808 9.8247C5.47714 9.91289 5.6453 9.99833 5.81164 10.0792L6.31792 9.20298L5.83074 8.9203L5.30808 9.8247ZM7.17233 10.6664C7.35502 10.7355 7.53499 10.7982 7.71133 10.8564L8.2058 10.0001L7.71861 9.72017L7.17233 10.6664Z" fill="#C85929"/>
<path d="M1.52435 9.34753V9.91653H2.09335V10.3656H1.52435V10.9346H1.07535V10.3656H0.506348V9.91653H1.07535V9.34753H1.52435Z" fill="#FEA832"/>
<path d="M11.5507 2.56226V3.13035H12.1197V3.57938H11.5507V4.14835H11.1017V3.57938H10.5327V3.13035H11.1017V2.56226H11.5507Z" fill="#FEA832"/>
<path fill-rule="evenodd" clip-rule="evenodd" d="M3.38187 11.8544C2.73378 10.7318 4.76165 8.34857 7.91021 6.53067C11.0588 4.71189 14.1374 4.14832 14.7855 5.27089C15.1445 5.89351 15.5035 6.51523 15.8635 7.13785C16.5116 8.26039 14.4837 10.6436 11.3351 12.4624C8.18562 14.2803 5.10796 14.8439 4.45987 13.7213C4.10084 13.0996 3.7409 12.477 3.38187 11.8544Z" fill="#FE9923"/>
<path fill-rule="evenodd" clip-rule="evenodd" d="M7.9107 6.53067C11.0593 4.71189 14.1379 4.14832 14.786 5.27089C15.434 6.39342 13.4062 8.77667 10.2576 10.5946C7.10811 12.4134 4.03045 12.9769 3.38236 11.8544C2.73427 10.7318 4.76211 8.34857 7.9107 6.53067Z" fill="#FECD3D"/>
<path fill-rule="evenodd" clip-rule="evenodd" d="M8.45864 7.48053C10.9637 6.0335 13.2751 5.34634 13.6196 5.9435C13.965 6.54159 12.2144 8.19859 9.70842 9.64472C7.20339 11.0917 4.89285 11.7789 4.54835 11.1817C4.20295 10.5837 5.95357 8.92669 8.45864 7.48053Z" fill="#FEA832"/>
<path d="M8.28136 12.7124L8.82764 13.6586C8.64496 13.7277 8.46499 13.7913 8.28774 13.8486L7.79327 12.9924L8.28136 12.7124ZM9.68205 12.1952L10.1874 13.0715C10.3547 12.9905 10.5228 12.906 10.691 12.8169L10.1692 11.9135L9.68205 12.1952ZM5.74268 13.5086L6.19349 14.2904C6.38621 14.2794 6.5898 14.2558 6.8043 14.2213L6.22983 13.2269L5.74268 13.5086ZM15.0375 8.14136L14.5503 8.42314L15.1239 9.41751C15.2611 9.24939 15.3838 9.08486 15.4893 8.92395L15.0375 8.14136ZM11.4435 11.1772L11.9653 12.0816C12.1262 11.9798 12.2834 11.8771 12.437 11.7735L11.9308 10.8973L11.4435 11.1772ZM13.0788 9.94104L13.626 10.8891C13.7768 10.7645 13.9214 10.641 14.0595 10.5164L13.566 9.66111L13.0788 9.94104Z" fill="#C85929"/>
</svg>
