<svg width="32" height="32" viewBox="0 0 32 32" fill="none" xmlns="http://www.w3.org/2000/svg">
<g clip-path="url(#clip0_3_306)">
<path d="M6.66669 3.5C6.39054 3.5 6.16669 3.72386 6.16669 4V28C6.16669 28.1953 6.28036 28.3727 6.45776 28.4543C6.63516 28.5359 6.84383 28.5067 6.99208 28.3796L8.80161 26.8286C9.36335 26.3471 10.1923 26.3471 10.754 26.8286L12.5635 28.3796C12.7508 28.5401 13.0271 28.5401 13.2143 28.3796L15.0238 26.8286C15.5856 26.3471 16.4145 26.3471 16.9762 26.8286L18.7857 28.3796C18.973 28.5401 19.2493 28.5401 19.4365 28.3796L21.2461 26.8286C21.8078 26.3471 22.6367 26.3471 23.1984 26.8286L25.008 28.3796C25.1562 28.5067 25.3649 28.5359 25.5423 28.4543C25.7197 28.3727 25.8334 28.1953 25.8334 28V4C25.8334 3.72386 25.6095 3.5 25.3334 3.5H6.66669Z" fill="url(#paint0_linear_3_306)" stroke="url(#paint1_linear_3_306)" stroke-linejoin="round"/>
<path d="M20 9.33331L12 9.33331" stroke="#DDF4FF" stroke-width="2" stroke-linecap="round" stroke-linejoin="round"/>
<path d="M20 14.6667L12 14.6667" stroke="#DDF4FF" stroke-width="2" stroke-linecap="round" stroke-linejoin="round"/>
<path d="M20 20L14.6667 20" stroke="#84D8FF" stroke-width="2" stroke-linecap="round" stroke-linejoin="round"/>
</g>
<defs>
<linearGradient id="paint0_linear_3_306" x1="7.11976" y1="4.57692" x2="29.9131" y2="23.3678" gradientUnits="userSpaceOnUse">
<stop stop-color="#4EBFFF"/>
<stop offset="1" stop-color="#0237F2"/>
</linearGradient>
<linearGradient id="paint1_linear_3_306" x1="16" y1="4" x2="16" y2="28" gradientUnits="userSpaceOnUse">
<stop stop-color="#49B7FE"/>
<stop offset="1" stop-color="#0944F3"/>
</linearGradient>
<clipPath id="clip0_3_306">
<rect width="32" height="32" fill="white"/>
</clipPath>
</defs>
</svg>
