<svg width="130" height="32" viewBox="0 0 130 32" fill="none" xmlns="http://www.w3.org/2000/svg">
<path d="M9.54168 13.0417H7.45834C6.65417 13.0417 6 13.6959 6 14.5V24.0834C6 24.8876 6.65417 25.5417 7.45834 25.5417H9.54168C10.3459 25.5417 11 24.8876 11 24.0834V14.5C11 13.6959 10.3459 13.0417 9.54168 13.0417Z" fill="#E9E9EC" fill-opacity="0.4"/>
<path d="M22.6677 13.6667H18.7343C18.7343 13.6667 19.3593 12.4167 19.3593 10.3333C19.3593 7.83334 17.4843 7 16.651 7C15.8176 7 15.401 7.41667 15.401 9.50001C15.401 11.48 13.4835 13.0734 12.2501 13.8942V24.2176C13.5843 24.8351 16.2551 25.7501 20.401 25.7501H21.7343C23.3593 25.7501 24.7427 24.5834 25.0177 22.9834L25.951 17.5667C26.301 15.525 24.7343 13.6667 22.6677 13.6667Z" fill="#E9E9EC" fill-opacity="0.4"/>
<path d="M57.5417 19.7084H55.4583C54.6542 19.7084 54 19.0542 54 18.2501V8.66668C54 7.86251 54.6542 7.20834 55.4583 7.20834H57.5417C58.3459 7.20834 59 7.86251 59 8.66668V18.2501C59 19.0542 58.3459 19.7084 57.5417 19.7084Z" fill="#E9E9EC" fill-opacity="0.4"/>
<path d="M70.6677 19.0834H66.7343C66.7343 19.0834 67.3593 20.3334 67.3593 22.4167C67.3593 24.9168 65.4843 25.7501 64.651 25.7501C63.8176 25.7501 63.401 25.3334 63.401 23.2501C63.401 21.2701 61.4835 19.6767 60.2501 18.8559V8.53251C61.5843 7.91501 64.2551 7 68.401 7H69.7343C71.3593 7 72.7427 8.16667 73.0177 9.76668L73.951 15.1834C74.301 17.2251 72.7343 19.0834 70.6677 19.0834Z" fill="#E9E9EC" fill-opacity="0.4"/>
<rect x="98" width="32" height="32" rx="16" fill="url(#paint0_linear_3_373)"/>
<path d="M119 18L114 23M114 23L109 18M114 23L114 10" stroke="#E9E9EC" stroke-width="1.5" stroke-linecap="round" stroke-linejoin="round"/>
<defs>
<linearGradient id="paint0_linear_3_373" x1="98.7767" y1="0.769231" x2="129.684" y2="33.529" gradientUnits="userSpaceOnUse">
<stop stop-color="#4EBFFF"/>
<stop offset="1" stop-color="#0237F2"/>
</linearGradient>
</defs>
</svg>
